<svg id="Layer_1" data-name="Layer 1" xmlns="http://www.w3.org/2000/svg" viewBox="0 0 1222.23 510.93"><defs><style>.cls-1{fill:#ff723f;}</style></defs><title>GOOP.ver2</title><path class="cls-1" d="M52.73,68.8C83.29,31.08,114.5,15.48,136.61,7c31.21-8.45,85.18-5.85,85.18,7.15,0,4.55-9.1,3.9-22.11,8.45C98.25,56.44,90.44,138.37,93,170.23c3.25,34.46,9.1,58.52,17.56,54s35.76-76.08,48.77-128.74c8.45-22.11,17.56-31.21,52.67-31.21s50.07,13,49.42,35.11c-5.85,314.71-57.87,349.82-80,362.82C119.05,510.3,46.23,485.59,17.62,427.07c-22.76-48.12-14.31-67-5.85-67C34.52,351,41,363.35,43,390.66c5.2,24.06,16.26,34.46,24.71,47.47,17.56,22.11,34.46,19.51,52-15.61,8.45-17.56,12.35-39.66,16.91-70.87,8.45-66.32,9.75-67-16.91-66.32C17.62,288.57,4.61,206,9.17,166.33S22.17,106.51,52.73,68.8Z" transform="translate(-2.97 -2.14)"/><path class="cls-1" d="M988.32,97.65c9.18-57.93,12.72-74.88,21.9-88.3,9.18-9.18,44.5-9.18,57.93,0,9.18,4.24,21.9,35.32,21.9,57.22,0,13.42,0,13.42,9.18,0,17.66-17.66,31.08-20.49,57.93-21.9,72.05-3.53,70.64,57.93,66.4,89-4.24,62.16-62.87,142-115.85,159.65-21.9,9.18-25.43,8.48-26.14,21.9-4.94,64.28,4.24,179.43,4.24,183.67-9.18,9.18-26.84,13.42-48.74,13.42-35.32,4.24-49.45-9.18-53.69-40.26C970,427.54,974.9,204.31,988.32,97.65Zm150.47,62.16c14.13-29.67,4.94-70.64,4.94-70.64-9.18,0-31.08,48.74-48.74,84.06-9.18,26.84-18.37,75.59-9.18,71.35S1129.61,181.71,1138.79,159.81Z" transform="translate(-2.97 -2.14)"/><path class="cls-1" d="M447.45,2.15A158.83,158.83,0,1,0,606.28,161,158.83,158.83,0,0,0,447.45,2.15Zm-23,135.08a18.3,18.3,0,1,1,18.3-18.3A18.3,18.3,0,0,1,424.4,137.24Zm97.11,0a18.3,18.3,0,1,1,18.3-18.3A18.3,18.3,0,0,1,521.52,137.24Z" transform="translate(-2.97 -2.14)"/><path class="cls-1" d="M794.13,2.15A158.83,158.83,0,1,1,635.3,161,158.83,158.83,0,0,1,794.13,2.15Zm22.35,135.08a18.3,18.3,0,1,0-18.3-18.3A18.3,18.3,0,0,0,816.47,137.24Zm-97.11,0a18.3,18.3,0,1,0-18.3-18.3A18.3,18.3,0,0,0,719.36,137.24Z" transform="translate(-2.97 -2.14)"/><text x="-2.97" y="-2.14"></text></svg>